<svg xmlns="http://www.w3.org/2000/svg" version="1.1" xmlns:xlink="http://www.w3.org/1999/xlink" xmlns:svgjs="http://svgjs.dev/svgjs" viewBox="0 0 800 800" opacity="1"><defs><linearGradient x1="50%" y1="0%" x2="50%" y2="100%" id="uundulate-grad"><stop stop-color="hsl(40, 30%, 69%)" stop-opacity="1" offset="45%"></stop><stop stop-color="hsl(40, 29%, 31%)" stop-opacity="1" offset="100%"></stop></linearGradient></defs><g stroke-width="3" stroke="url(#uundulate-grad)" fill="none"><path d="M1658.8801775410006 -251.44636979527547C1742.228355549465 -1.5249037656126347 1263.2071129247229 772.890737202539 1024.0495329426662 1093.6434894684915C784.8919529606098 1414.3962417344437 721.100852152859 1296.6747437025524 510.9237936271302 1288.1668410812963C300.7467351014013 1279.6589384600402 299.9867801091923 1222.0781553153838 15.199652019166024 1052.8055568864604C-269.58747607086025 883.5329584575372 -780.8844179361171 798.3135894282063 -856.0544212049979 475.65836862246624C-931.2244244738788 153.00314781672625 -653.9565094437603 -374.76493712768433 -345.6163636714605 -495.9395029810925C-37.276217899160656 -617.1140688345007 206.37483241610857 -156.9156168876052 623.9782785020382 -105.97954747389304C1041.581724587968 -55.04347806018086 1575.5319995325358 -501.36783582493837 1658.8801775410006 -251.44636979527547C1742.228355549465 -1.5249037656126347 1263.2071129247229 772.890737202539 1024.0495329426662 1093.6434894684915 "></path><path d="M1637.5432227930532 -240.40488934853352C1719.478719818323 5.280619629779039 1248.5764813058654 766.5705717679621 1013.4724196285893 1081.8868367073728C778.3683579513131 1397.2031016467836 715.6584622419989 1281.4768832425516 509.0437267421298 1273.1131823606388C302.42899124226096 1264.749481478726 301.68191684314 1208.144643811097 21.721689229215826 1041.7410724741899C-258.23853838470825 875.3375011372823 -760.869430387842 791.5625281931943 -834.7653658047079 474.37603994348365C-908.6613012215739 157.18955169377318 -636.0928423784067 -361.63331147191843 -332.9788007717391 -480.75407112442144C-29.86475916507152 -599.8748307769245 209.65661233129504 -147.47635259184085 620.1820339072938 -97.40360638853053C1030.7074554832925 -47.33086018522022 1555.607725767783 -486.0903983268462 1637.5432227930532 -240.40488934853352C1719.478719818323 5.280619629779039 1248.5764813058654 766.5705717679621 1013.4724196285893 1081.8868367073728 "></path><path d="M1616.2062680451058 -229.36331734905718C1696.7290840871815 12.086234577905202 1233.945849687007 760.2504978861195 1002.8953063145118 1070.1302754989888C771.8447629420164 1380.0100531118583 710.2160723311388 1266.2791143352852 507.16365985712946 1258.0596151927157C304.11124738312014 1249.8401160501462 303.37705357708774 1194.211223859546 28.24372643926563 1030.676679614654C-246.88960069855625 867.142135369762 -740.854442839567 784.8115585109169 -813.476310404418 473.09380281723566C-886.098177969269 161.3760471235546 -618.2291753130529 -348.50159426341827 -320.3412378720175 -465.568547715016C-22.453300430981926 -582.6355011666137 212.9383922464815 -138.0369967433419 616.3857893125492 -88.82757375043343C1019.833186378617 -39.618150757525086 1535.6834520030302 -470.8128692760197 1616.2062680451058 -229.36331734905718C1696.7290840871815 12.086234577905202 1233.945849687007 760.2504978861195 1002.8953063145118 1070.1302754989888 "></path><path d="M1594.8693132971584 -218.32202000778398C1673.97944835604 18.89157486782824 1219.3152180681495 753.9301493460739 992.3181930004348 1058.3734396324016C765.3211679327201 1362.8167299187294 704.7736824202784 1251.0810707698151 505.2835929721291 1243.0057733665894C305.7935035239798 1234.9304759633633 305.07219031103546 1180.2775292497909 34.76576364931566 1019.6120120969144C-235.54066301240414 858.9464949440382 -720.839455291292 778.0603141704362 -792.187255004128 471.81129103278454C-863.5350547169642 165.5622678951329 -600.3655082476992 -335.3701517131211 -307.70367497229597 -450.3832989638137C-15.041841696892789 -565.3964462145062 216.22017216166796 -128.59791555304605 612.5895447178045 -80.25181577053968C1008.9589172739411 -31.90571598803308 1515.759178238277 -455.53561488339625 1594.8693132971584 -218.32202000778398C1673.97944835604 18.89157486782824 1219.3152180681495 753.9301493460739 992.3181930004348 1058.3734396324016 "></path><path d="M1573.532358549211 -207.28044800830764C1651.2298126248984 25.69718981595429 1204.6845864492916 747.6100754642314 981.7410796863578 1046.6168784240174C758.7975729234233 1345.6236813838036 699.3312925094183 1235.883301862549 503.40352608712874 1227.9522061986663C307.4757596648392 1220.0211105347835 306.7673270449832 1166.3441092982391 41.28780085936569 1008.5476192373783C-224.19172532625225 850.7511291765177 -700.824467743017 771.3093444881583 -770.8981996038381 470.5290539065363C-840.9719314646593 169.7487633249143 -582.5018411823454 -322.23843450462095 -295.06611207257447 -435.1977755544083C-7.630382962803651 -548.1571166041956 219.50195207685442 -119.15855970454732 608.7933001230601 -71.67578313244269C998.0846481692656 -24.193006560338063 1495.8349044735241 -440.2580858325697 1573.532358549211 -207.28044800830764C1651.2298126248984 25.69718981595429 1204.6845864492916 747.6100754642314 981.7410796863578 1046.6168784240174 "></path><path d="M1552.195403801264 -196.2389980791438C1628.4801768937568 32.50268269376795 1190.0539548304341 741.2898795120761 971.1639663722799 1034.8601951453206C752.2739779141266 1328.430510778565 693.8889025985582 1220.6854108849698 501.5234592021284 1212.8985169604305C309.1580158056986 1205.111623035891 308.4624637789309 1152.4105672763746 47.80983806941549 997.4831043075296C-212.84278764010014 842.5556413386846 -680.8094801947419 764.5582527355684 -749.6091442035481 469.2466947099758C-818.4088082123544 173.9351366843831 -564.6381741169918 -309.1068393664333 -282.42854917285285 -420.01237421531533C-0.2189242287140587 -530.9179090641974 222.78373199204088 -109.71932592636085 604.9970555283155 -63.0998725646582C987.2103790645901 -16.480419202955545 1475.9106307087714 -424.98067885205563 1552.195403801264 -196.2389980791438C1628.4801768937568 32.50268269376795 1190.0539548304341 741.2898795120761 971.1639663722799 1034.8601951453206 "></path><path d="M1530.8584490533167 -185.1975481499801C1605.7305411626148 39.308175571581614 1175.4233232115757 734.9696835599211 960.5868530582029 1023.1035118666241C745.7503829048298 1311.2373401733266 688.4465126876978 1205.4875199073906 499.643392317128 1197.8448277221946C310.84027194655823 1190.2021355369986 310.1576005128786 1138.4770252545104 54.331875279465294 986.418589377681C-201.49384995394814 834.3601535008518 -660.794492646467 757.8071609829783 -728.3200888032582 467.9643355134151C-795.8456849600495 178.12151004385203 -546.774507051638 -295.9752442282456 -269.79098627313147 -404.8269728762224C7.192534505375079 -513.6787015241993 226.06551190722712 -100.28009214817462 601.2008109335709 -54.52396199687382C976.3361099599142 -8.767831845573028 1455.986356944018 -409.7032718715416 1530.8584490533167 -185.1975481499801C1605.7305411626148 39.308175571581614 1175.4233232115757 734.9696835599211 960.5868530582029 1023.1035118666241 "></path><path d="M1509.5214943053693 -174.1561592559724C1582.9809054314733 46.11360741423891 1160.7926915927183 728.6494265726099 950.0097397441257 1011.3467675527713C739.2267878955336 1294.044108532933 683.0041227768379 1190.2895678946554 497.76332543212766 1182.791077448803C312.52252808741764 1175.29258700295 311.85273724682656 1124.54342219749 60.853912489515096 975.3540134126763C-190.14491226779603 826.1646046278627 -640.779505098192 751.0560081952319 -707.0310334029682 466.68191528169837C-773.2825617077447 182.3078223681647 -528.9108399862843 -282.8437101252141 -257.15342337340985 -389.6416325722857C14.603993239464671 -496.43955501935733 229.3472918224138 -90.8409194051444 597.4045663388265 -45.94811246424547C965.461840855239 -1.055305523346533 1436.0620831792653 -394.42592592618377 1509.5214943053693 -174.1561592559724C1582.9809054314733 46.11360741423891 1160.7926915927183 728.6494265726099 950.0097397441257 1011.3467675527713 "></path><path d="M1488.1845395574219 -163.11464829165232C1560.2312697003317 52.91916132720871 1146.1620599738599 722.3292916556111 939.4326264300485 999.590145309231C732.7031928862368 1276.8509989628508 677.5617328659778 1175.0917379522327 495.8832585471273 1167.7374492457234C314.2047842282773 1160.383160539214 313.5478739807743 1110.6099412107817 67.3759496995649 964.2895595179839C-178.79597458164403 817.9691778251859 -620.764517549917 744.3049774777983 -685.7419780026783 465.3996171202939C-750.7194384554398 186.49425676278986 -511.0471729209305 -269.7120539518701 -244.51586047368835 -374.45617019803655C22.01545197355381 -479.2002864442029 232.62907173760004 -81.4016245918018 593.6083217440819 -37.37214086130484C954.5875717505635 6.6573428691922345 1416.137809414512 -379.14845791051346 1488.1845395574219 -163.11464829165232C1560.2312697003317 52.91916132720871 1146.1620599738599 722.3292916556111 939.4326264300485 999.590145309231 "></path><path d="M1466.8475542918964 -152.0732288800666C1537.481603451612 59.724623687444364 1131.5313978374243 716.009065185878 928.8554825983931 987.8334315129562C726.1795673593622 1259.6577978400344 672.1193124375395 1159.8938164570757 494.0031611445488 1152.6837294899096C315.88700985155833 1145.4736425227434 315.2429801971439 1096.6763686713393 73.8979563920368 953.2250140705571C-167.44706741307004 809.7736594697747 -600.74956051922 737.5538552076298 -664.4529531199664 464.11722740615505C-728.1563457207129 190.68059960468065 -493.183536373155 -256.58048933126054 -231.87832809154497 -359.2707993765217C29.426880190065276 -461.9611094217829 235.9108211352086 -71.96242133119358 589.8120466317591 -28.796260811098477C943.7132721283099 14.369899708996627 1396.2135051321807 -363.8710814475775 1466.8475542918964 -152.0732288800666C1537.481603451612 59.724623687444364 1131.5313978374243 716.009065185878 928.8554825983931 987.8334315129562 "></path><path d="M1445.5106300615275 -141.03174843332465C1514.7319982380486 66.53014708283604 1116.9007967361445 709.6888997513008 918.278399801894 976.0767787518375C719.6560028676436 1242.4646577523743 666.6769530442575 1144.6959559970746 492.1231247771266 1137.630070769252C317.5692965099961 1130.5641855414292 316.9381474486695 1082.7428571670532 80.42002411966473 942.1605296582864C-156.09809920934003 801.5782021495197 -580.7345424533669 730.8027939726178 -643.1638672020983 462.8348987271727C-705.5931919508299 194.86700348172758 -475.3198387902231 -243.4488636754947 -219.24073467424523 -344.08536751985065C36.83836944173254 -444.7218713642066 239.19263156797297 -62.523157035428994 586.0158325545929 -20.220319725735862C932.8390335412121 22.08251758395727 1376.289261885006 -348.5936439494854 1445.5106300615275 -141.03174843332465C1514.7319982380486 66.53014708283604 1116.9007967361445 709.6888997513008 918.278399801894 976.0767787518375 "></path><path d="M1424.1736753135801 -129.9902679865827C1491.982362506907 73.33567047822783 1102.2701651172865 703.3687343167242 907.7012864878168 964.3201259907191C713.1324078583468 1225.2715176647143 661.2345631333972 1129.4980955370738 490.2430578921262 1122.5764120485946C319.2515526508555 1115.6547285601152 318.63328418261744 1068.809345662767 86.94206132971476 931.096045246016C-144.74916152318792 793.382744829265 -560.7195549050919 724.051732737606 -621.8748118018084 461.5525700481903C-683.030068698525 199.05340735877462 -457.45617172486936 -230.31723801972885 -206.60317177452384 -328.8999356631796C44.24982817582179 -427.4826333066303 242.47441148315966 -53.08389273966452 582.2195879598482 -11.644378640373247C921.9647644365366 29.79513545891814 1356.3649881202527 -333.3162064513932 1424.1736753135801 -129.9902679865827C1491.982362506907 73.33567047822783 1102.2701651172865 703.3687343167242 907.7012864878168 964.3201259907191 "></path><path d="M1402.8366900480546 -118.94881805741886C1469.2326962581874 80.14116335604137 1087.6395029808505 697.0485383645689 897.1241426561612 952.5634427120226C706.6087823314724 1208.0783470594763 655.7921427049589 1114.300204559495 488.36296048954796 1107.5227228103588C320.9337782741368 1100.7452410612225 320.32839039898704 1054.8758036409029 93.46406802218644 920.0315303161674C-133.40025435461416 785.1872569914319 -540.704597874395 717.3006409850159 -600.5857869190966 460.2702108516296C-660.4669759637983 203.23978071824354 -439.5925351770938 -217.18564288154113 -193.96563939238035 -313.7145343240867C51.66125639233303 -410.2434257666322 245.756160880768 -43.64465896147817 578.4233128475255 -3.0684680725887574C911.090464814283 37.50772281630066 1336.4406838379218 -318.03879947087916 1402.8366900480546 -118.94881805741886C1469.2326962581874 80.14116335604137 1087.6395029808505 697.0485383645689 897.1241426561612 952.5634427120226 "></path><path d="M1381.4997353001072 -107.90730709309878C1446.4830605270454 86.94671726901129 1073.0088713619928 690.7284034475701 886.547029342084 940.8068204684821C700.0851873221757 1190.8852374893943 650.3497527940988 1099.1023746170722 486.4828936045476 1092.4690946072794C322.6160344149962 1085.8358145974864 322.02352713293476 1040.9423226541949 99.98610523223624 908.967076421475C-122.05131666846205 776.9918301887551 -520.6896103261199 710.549610267582 -579.2967315188066 458.98791269022513C-637.9038527114934 207.4262151128687 -421.7288681117401 -204.05398670819721 -181.32807649265885 -298.5290719498375C59.072715126422395 -393.00415719147776 249.03794079595446 -34.20536414813557 574.6270682527809 5.507503530351869C900.2161957096073 45.220371208839424 1316.516410073169 -302.76133145520885 1381.4997353001072 -107.90730709309878C1446.4830605270454 86.94671726901129 1073.0088713619928 690.7284034475701 886.547029342084 940.8068204684821 "></path><path d="M1360.1628110697384 -96.86585716393495C1423.7334553134824 93.75221014682484 1058.378270260713 684.4082074954151 875.9699465455851 929.0501371897856C693.561622830457 1173.692066884156 644.9073934008165 1083.904483639493 484.60285723712536 1077.4154053690436C324.2983210734337 1070.9263270985941 323.71869438446083 1027.0087806323304 106.5081729598644 897.9025614916263C-110.70234846473181 768.7963423509223 -500.67459226026676 703.7985185149919 -558.0076456009385 457.70555349366464C-615.3406989416104 211.6125884723375 -403.8651705288082 -190.9223915700095 -168.69048307535923 -283.34367061074454C66.48420437808988 -375.7649496514796 252.31975122871881 -24.766130369949224 570.8308541756144 14.083414098136473C889.3419571225099 52.93295856622194 1296.5921668259944 -287.4839244746948 1360.1628110697384 -96.86585716393495C1423.7334553134824 93.75221014682484 1058.378270260713 684.4082074954151 875.9699465455851 929.0501371897856 "></path><path d="M1338.8259783921035 -85.82440723477112C1400.983941652653 100.55770302463839 1043.7477607121677 678.0880115432601 865.3929553018204 917.2934539110888C687.0381498914728 1156.4988962789178 639.4651255602691 1068.706592661914 482.7229124224375 1062.361716130808C325.98069928460586 1056.0168395997016 325.41395318872105 1013.0752386104662 113.03033224022681 886.8380465617777C-99.35328870826731 760.6008545130892 -480.65948264167923 697.0474267624018 -536.7184681303361 456.42319429710415C-592.777453618993 215.7989618318063 -386.00138139314197 -177.79079643182178 -156.0527981053251 -268.1582692716516C73.89578518249164 -358.52574211148146 255.601653214218 -15.326896591762761 567.0347316511825 22.65932466592085C878.467810088147 60.64554592360446 1276.6680151315536 -272.20651749418073 1338.8259783921035 -85.82440723477112C1400.983941652653 100.55770302463839 1043.7477607121677 678.0880115432601 865.3929553018204 917.2934539110888 "></path><path d="M1317.488993126578 -74.78289627045103C1378.2342754039332 107.36325693760841 1029.1170985757317 671.7678766262613 854.815811470165 905.5368316675485C680.5145243645982 1139.305786708836 634.0227051318309 1053.5087627194914 480.842815019859 1047.3080879277286C327.6629249078869 1041.1074131359658 327.10905940509065 999.1417576237582 119.55233893269849 875.7735926670853C-88.00438153969344 752.4054277104124 -460.6445256109823 690.2963960449679 -515.4294432476242 455.1408961356997C-570.2143608842663 219.9853962264316 -368.1377448453664 -164.6591402584778 -143.41526572318185 -252.9728068974024C81.30721339900276 -341.28647353632704 258.8834026118261 -5.887601778420276 563.2384565388597 31.23529626886159C867.5935104658934 68.35819431614345 1256.7437108492227 -256.9290494785104 1317.488993126578 -74.78289627045103C1378.2342754039332 107.36325693760841 1029.1170985757317 671.7678766262613 854.815811470165 905.5368316675485 "></path><path d="M1296.1520383786306 -63.741415823709076C1355.4846396727917 114.16878033300009 1014.4864669568738 665.4477111916844 844.2386981560878 893.7801789064299C673.9909293553017 1122.1126466211758 628.5803152209705 1038.3109022594906 478.96274813485866 1032.254429207071C329.34518104874655 1026.1979561546516 328.80419613903814 985.208246119472 126.0743761427484 864.7091082548147C-76.65544385354144 744.2099703901577 -440.6295380627073 683.5453348099559 -494.14038784733435 453.8585674567173C-547.6512376319614 224.17180010347852 -350.2740777800127 -151.52751460271196 -130.77770282346023 -237.78737504073138C88.71867213309213 -324.04723547875074 262.1651825270126 3.5516625173443117 559.4422119441151 39.811237354224204C856.7192413612177 76.0708121911041 1236.8194370844694 -241.65161198041824 1296.1520383786306 -63.741415823709076C1355.4846396727917 114.16878033300009 1014.4864669568738 665.4477111916844 844.2386981560878 893.7801789064299 "></path><path d="M1274.8149615603706 -52.69999641212337C1332.7348818713376 120.97424269323551 999.8557132677033 659.1274847219511 833.6614627716981 882.0234651101553C667.4672122756924 1104.9194454983594 623.1378032397979 1023.1129807643331 477.0825591795458 1017.2007094512571C331.02731511929346 1011.2884381381809 330.4992108026736 971.2746735800295 132.59629128248594 853.644562807388C-65.30662823770194 736.0144520347462 -420.61467258474477 676.7942125397876 -472.8514545173569 452.5761777425787C-525.0882364499689 228.3581429453693 -332.41053278497145 -138.39594998210237 -118.14026199405123 -222.60200421921655C96.13000879686899 -306.80805845633074 265.44684037188654 12.990865777952536 555.645845279058 48.387117404430455C845.8448501862297 83.78336903090849 1216.8950412494041 -226.37423551748236 1274.8149615603706 -52.69999641212337C1332.7348818713376 120.97424269323551 999.8557132677033 659.1274847219511 833.6614627716981 882.0234651101553 "></path><path d="M1253.4780068124237 -41.65851596538141C1309.985246140196 127.7797660886273 985.2250816488456 652.8073192873742 823.0843494576206 870.2668123490366C660.9436172663959 1087.7263054106995 617.6954133289378 1007.9151203043323 475.20249229454544 1002.1470507305994C332.7095712601531 996.3789811568665 332.1943475366213 957.3411620757433 139.11832849253574 842.5800783951174C-53.95769055154983 727.8189947144915 -400.59968503646974 670.0431513047756 -451.56239911706695 451.2938490635961C-502.5251131976641 232.54454682241635 -314.5468657196177 -125.26432432633658 -105.50269909432973 -207.41657236254548C103.54146753095836 -289.56882039875444 268.728620287073 22.43013007371701 551.8496006843134 56.96305848979307C834.9705810815542 91.49598690586913 1196.970767484651 -211.09679801939018 1253.4780068124237 -41.65851596538141C1309.985246140196 127.7797660886273 985.2250816488456 652.8073192873742 823.0843494576206 870.2668123490366 "></path><path d="M1232.1411130996325 -30.61706603621758C1287.2356714442103 134.58525896644096 970.5945110651439 646.4871233352192 812.5072971786997 858.5101290703403C654.4200832922556 1070.5331348054615 612.2530844532339 992.7172293267533 473.3224864447013 987.093361492364C334.39188843616876 981.4694936579745 333.8895453057253 943.4076200538791 145.6404267377419 831.5155634652688C-42.60869183024158 719.6235068766587 -380.58463645303846 663.2920595521857 -430.27328268162074 450.0114898670355C-479.96192891020297 236.73092018188527 -296.68313761910775 -112.1327291881488 -92.86507515945198 -192.2311710234526C110.95298730020386 -272.32961285875626 272.0104612374157 31.869363851903472 548.0534171247252 65.53896905757756C824.0963730120345 99.20857426325176 1177.046554755054 -195.81939103887612 1232.1411130996325 -30.61706603621758C1287.2356714442103 134.58525896644096 970.5945110651439 646.4871233352192 812.5072971786997 858.5101290703403 "></path><path d="M1210.8041583516851 -19.575555071897497C1264.486035713069 141.39081287941076 955.9638794462862 640.1669884182204 801.9301838646224 846.7535068267998C647.8964882829589 1053.3400252353795 606.8106945423738 977.5193993843307 471.44241955970097 972.0397332892844C336.07414457702816 966.5600671942384 335.5846820396732 929.4741390671711 152.1624639477917 820.4511095705766C-31.259754144089584 711.4280800739818 -360.5696489047634 656.5410288347521 -408.9842272813308 448.72919170563114C-457.3988056578981 240.91735457651043 -278.819470553754 -99.00107301480489 -80.22751225973047 -177.0457086492034C118.36444603429322 -255.0903442836019 275.2922411526024 41.30865866524607 544.2571725299808 74.1149406605183C813.222103907359 106.92122265579064 1157.1222809903013 -180.5419230232058 1210.8041583516851 -19.575555071897497C1264.486035713069 141.39081287941076 955.9638794462862 640.1669884182204 801.9301838646224 846.7535068267998 "></path><path d="M1189.4672036037377 -8.534105142733665C1241.7363999819272 148.19630575722442 941.3332478274281 633.8467924660654 791.3530705505452 834.9968235481033C641.3728932736624 1036.1468546301412 601.3683046315136 962.3215084067515 469.5623526747006 956.9860440510488C337.7564007178876 951.6505796953459 337.2798187736207 915.5405970453069 158.68450115784162 809.3865946407279C-19.910816457937585 703.2325922361488 -340.5546613564884 649.7899370821617 -387.69517188104084 447.44683250907053C-434.8356824055932 245.10372793597924 -260.9558034884003 -85.86947787661717 -67.58994936000886 -161.86030731011044C125.77590476838259 -237.85113674360372 278.57402106778864 50.74789244343242 540.4609279352362 82.69085122830279C802.3478348026836 114.63381001317316 1137.1980072255483 -165.26451604269175 1189.4672036037377 -8.534105142733665C1241.7363999819272 148.19630575722442 941.3332478274281 633.8467924660654 791.3530705505452 834.9968235481033 "></path><path d="M1168.1302488557906 2.507344786430167C1218.9867642507857 155.00179863503809 926.7026162085704 627.5265965139101 780.775957236468 823.2401402694063C634.8492982643656 1018.9536840249029 595.9259147206533 947.1236174291726 467.68228578970025 941.932354812813C339.438656858747 936.7410921964536 338.97495550756867 901.6070550234424 165.20653836789154 798.3220797108793C-8.561878771785587 695.0371043983159 -320.53967380821337 643.0388453295716 -366.4061164807509 446.1644733125099C-412.27255915328834 249.29010129544804 -243.09213642304655 -72.73788273842945 -54.95238646028747 -146.6749059710175C133.18736350247184 -220.61192920360554 281.8558009829752 60.18712622161877 536.6646833404916 91.26676179608717C791.4735656980081 122.34639737055568 1117.2737334607953 -149.9871090621777 1168.1302488557906 2.507344786430167C1218.9867642507857 155.00179863503809 926.7026162085704 627.5265965139101 780.775957236468 823.2401402694063 "></path><path d="M1146.7932941078432 13.548794715594C1196.237128519644 161.80729151285163 912.0719845897124 621.2064005617551 770.1988439223908 811.4834569907098C628.3257032550691 1001.7605134196647 590.4835248097934 931.9257264515934 465.8022189046999 926.8786655745773C341.1209129996064 921.831604697561 340.67009224151616 887.6735130015782 171.72857557794146 787.2575647810304C2.7870589143665256 686.8416165604826 -300.52468625993833 636.2877535769815 -345.1170610804609 444.8821141159492C-389.70943590098346 253.47647465491696 -225.22846935769286 -59.60628760024173 -42.314823560565856 -131.4895046319246C140.5988222365611 -203.37272166360742 285.13758089816156 69.62635999980512 532.868438745747 99.84267236387166C780.5992965933324 130.0589847279382 1097.3494596960422 -134.70970208166364 1146.7932941078432 13.548794715594C1196.237128519644 161.80729151285163 912.0719845897124 621.2064005617551 770.1988439223908 811.4834569907098 "></path><path d="M1125.456339359896 24.590275162335956C1173.4874927885025 168.6128149082433 897.4413529708547 614.8862351271782 759.6217306083136 799.7268042295914C621.8021082457726 984.5673733320048 585.041134898933 916.7278659915928 463.9221520196995 911.8250068539198C342.8031691404659 906.9221477162471 342.365228975464 873.7400014972923 178.25061278799126 776.1930803687601C14.135996600518638 678.6461592402279 -280.50969871166336 629.5366923419697 -323.8280056801709 443.59978543696684C-367.14631264867853 257.6628785319641 -207.3648022923391 -46.47466194447588 -29.677260660844354 -116.30407277525353C148.01028097065046 -186.13348360603112 288.419360813348 79.0656242955697 529.0721941510023 108.41861344923427C769.7250274886569 137.77160260289895 1077.4251859312894 -119.43226458357151 1125.456339359896 24.590275162335956C1173.4874927885025 168.6128149082433 897.4413529708547 614.8862351271782 759.6217306083136 799.7268042295914 "></path><path d="M1104.119445647105 35.63172509149979C1150.737918092517 175.41830778605697 882.810782387153 608.5660391750232 749.0446783293926 787.9701209508949C615.2785742716319 967.3742027267665 579.5988060232291 901.5299750140139 462.0421461698554 896.771317615684C344.4854863164817 892.0126602173546 344.0604267445681 859.8064594754278 184.77271103319742 765.1285654389112C25.484995321826773 670.4506714023951 -260.4946501282321 622.7856005893796 -302.5388892447247 442.31742624040623C-344.5831283612174 261.8492518914329 -189.50107419182916 -33.34306680628822 -17.039636725966602 -101.11867143616058C155.42180073989607 -168.89427606603294 291.70120176369073 88.50485807375605 525.276010591414 116.99452401701876C758.8508194191375 145.48418996028158 1057.5009732016927 -104.15485760305745 1104.119445647105 35.63172509149979C1150.737918092517 175.41830778605697 882.810782387153 608.5660391750232 749.0446783293926 787.9701209508949 "></path><path d="M1082.7824298640012 46.673144503085496C1127.9882213262192 182.2237701462925 868.1800897331391 602.2458127052901 738.4675039801591 776.21340715462C608.7549182271791 950.1810016039503 574.1563550772125 886.3320535188566 460.1620182496988 881.7175978598702C346.16768142218484 877.1031422008841 345.75550244335955 845.8728869359852 191.2946872080911 754.0640199914847C36.833871972822635 662.2551530469839 -240.4797236151133 616.0344783192113 -281.249894879591 441.0350365262675C-322.0200661440688 266.0355947333237 -171.63746816163166 -20.211502185678626 -4.402134861401237 -85.93330061464576C162.83319843882919 -151.65509904361295 294.98292064372095 97.94406133436428 521.4797049615133 125.57040406722513C747.9764892793057 153.19674680008598 1037.5766384017834 -88.87748114012152 1082.7824298640012 46.673144503085496C1127.9882213262192 182.2237701462925 868.1800897331391 602.2458127052901 738.4675039801591 776.21340715462 "></path><path d="M1061.445475116054 57.7146859849837C1105.2385855950777 189.02935457684043 853.5494581142812 595.9257083058692 727.8903906660817 764.4568154286578C602.2313232178826 932.9879225514464 568.7139651663524 871.1342540940118 458.28195136469844 866.664000174369C347.84993756304436 862.193746254726 347.4506391773074 831.9394364668556 197.816724418141 742.9995966143701C48.182809658974634 654.0597567618852 -220.46473606683827 609.2834781193556 -259.96083947930106 439.75276888244116C-299.4569428917639 270.222059645527 -153.77380109627796 -7.079815494756531 8.235428038320265 -70.7478077228185C170.24465717291855 -134.4157999508804 298.2647005589074 107.383386665285 517.6834603667687 134.146406187744C737.10222017463 160.90942571020287 1017.6523646370304 -73.59998260687308 1061.445475116054 57.7146859849837C1105.2385855950777 189.02935457684043 853.5494581142812 595.9257083058692 727.8903906660817 764.4568154286578 "></path><path d="M1040.1085814032629 68.75613591414754C1082.4890108990921 195.83484745465398 838.9188875305795 589.6055123537143 717.3133383871609 752.7001321499613C595.7077892437424 915.7947519462082 563.2716362906485 855.9363631164329 456.40194551485433 851.6103109361334C349.53225473906 847.2842587558334 349.14583694641135 818.0058944449911 204.33882266334717 731.9350816845217C59.53180838028288 645.8642689240523 -200.449687483407 602.5323863667654 -238.67172304385485 438.47040968588067C-276.8937586043028 274.4084330049959 -135.91007299576796 6.051779643431189 20.873051973198017 -55.562406383725545C177.65617694216394 -117.17659241088222 301.5465415092501 116.82262044347135 513.8872768071806 142.72231675552848C726.2280121051108 168.6220130675855 997.7281519074336 -58.322575626359026 1040.1085814032629 68.75613591414754C1082.4890108990921 195.83484745465398 838.9188875305795 589.6055123537143 717.3133383871609 752.7001321499613 "></path><path d="M1018.7715961377376 79.79758584331137C1059.7393446503725 202.64034033246764 824.2882253941436 583.2853164015592 706.7361945555056 740.9434488712645C589.1841637168675 898.6015813409699 557.8292158622103 840.7384721388539 454.52184811227585 836.5566216978975C351.2144803623414 832.3747712569411 350.84094316278095 804.0723524231266 210.86082935581885 720.8705667546731C70.88071554885687 637.6687810862193 -180.43473045271008 595.7812946141753 -217.38269816114303 437.18805048931995C-254.33066586957602 278.5948063644647 -118.04643644799239 19.18337478161891 33.51058435534139 -40.3770050446326C185.06760515867518 -99.9373848708841 304.82829090685846 126.2618542216577 510.0910016948578 151.29822732331286C715.3537124828572 176.33460042496802 977.8038476251024 -43.04516864584497 1018.7715961377376 79.79758584331137C1059.7393446503725 202.64034033246764 824.2882253941436 583.2853164015592 706.7361945555056 740.9434488712645 "></path><path d="M997.4345803546339 90.8390357724752C1036.9896478840747 209.4458332102813 809.6575327401295 576.9651204494041 696.1590202062721 729.186765592568C582.6605076724147 881.4084107357319 552.3867649161939 825.5405811612748 452.64172019211924 821.5029324596619C352.8966754680446 817.4652837580488 352.5360188615724 790.1388104012626 217.38280553071252 709.8060518248244C82.22959219985262 629.4732932483863 -160.4198039395913 589.0302028615853 -196.09370379600932 435.90569129275946C-231.7676036524274 282.78117972393363 -100.18283041779489 32.31496991980663 46.148086219906645 -25.19160370553965C192.4790028576083 -82.69817733088593 308.11000978688867 135.70108799984416 506.29469606495695 159.87413789109735C704.4793823430252 184.04718778235065 957.8795128251932 -27.76776166533091 997.4345803546339 90.8390357724752C1036.9896478840747 209.4458332102813 809.6575327401295 576.9651204494041 696.1590202062721 729.186765592568 "></path><path d="M976.0977171594211 101.88048570163903C1014.2401037056675 216.25132608809486 795.0269926740061 570.644924497249 685.581998444929 717.4300823138713C576.1370042158524 864.2152401304934 546.9444665580681 810.3426901836958 450.76174485985325 806.4492432214261C354.57902316163836 802.5557962591565 354.2312471482545 776.2052683793981 223.9049342934968 698.7415368949758C93.57862143873899 621.2778054105532 -140.4047248385819 582.2791111089952 -174.804556842985 434.62333209619885C-209.20438884738815 286.96755308340244 -82.31907179970682 45.44656505799429 58.785740672362635 -10.0062023664467C199.89055314443203 -65.45896979088775 311.3918812548095 145.1403217780305 502.4985430229468 168.45004845888184C693.6052047910841 191.75977513973316 937.9553306131747 -12.49035468481685 976.0977171594211 101.88048570163903C1014.2401037056675 216.25132608809486 795.0269926740061 570.644924497249 685.581998444929 717.4300823138713 "></path><path d="M954.7607318938956 112.92193563080286C991.4904374569476 223.05681896590852 780.3963305375701 564.324728545094 675.0048546132739 705.6733990351747C569.6133786889777 847.0220695252556 541.5020461296299 795.1447992061167 448.88164745727477 791.3955539831904C356.26124878491976 787.6463087602642 355.9263533646242 762.2717263575341 230.42694098596849 687.6770219651271C104.92752860731298 613.0823175727204 -120.389767807885 575.528019356405 -153.51553196027317 433.34097289963825C-186.64129611266134 291.15392644287135 -64.45543525193119 58.57816019618201 71.42327305450601 5.179198972646191C207.30198136094327 -48.21976225088963 314.67363065241784 154.57955555621686 498.7022679106242 177.02595902666633C682.7309051688303 199.4723624971158 918.0310263308436 2.7870522956971513 954.7607318938956 112.92193563080286C991.4904374569476 223.05681896590852 780.3963305375701 564.324728545094 675.0048546132739 705.6733990351747 "></path><path d="M933.4237771459482 123.96344659512295C968.740801725806 229.86237287887843 765.7656989187121 558.0045936280952 664.4277412991964 693.9167767916342C563.0897836796812 829.8289599551736 536.0596562187698 779.946969263694 447.0015805722744 776.3419257801111C357.94350492577917 772.7368822965279 357.62149009857194 748.3382453708259 236.9489781960184 676.6125680704348C116.27646629346498 604.8868907700436 -100.37478025961002 568.7769886389711 -132.2264765599832 432.0586747382338C-164.07817286035646 295.3403608374965 -46.5917681865775 71.70981636952598 84.06083595422751 20.36466134689539C214.71344009503264 -30.980493675735204 317.9554105676043 164.01885036955946 494.90602331587957 185.60193062960707C671.8566360641548 207.18501088965456 898.1067525660903 18.06452031136746 933.4237771459482 123.96344659512295C968.740801725806 229.86237287887843 765.7656989187121 558.0045936280952 664.4277412991964 693.9167767916342 "></path><path d="M912.086822398001 135.00489652428678C945.9911659946645 236.66786575669198 751.1350672998542 551.6843976759402 653.8506279851194 682.1600935129377C556.5661886703843 812.6357893499353 530.6172663079095 764.749078286115 445.12151368727405 761.2882365418754C359.6257610666387 757.8273947976359 359.31662683251966 734.4047033489617 243.47101540606832 665.5480531405861C127.62540397961698 596.6914029322106 -80.35979271133499 562.0258968863811 -110.93742115969326 430.7763155416733C-141.51504960805158 299.52673419696544 -28.728101121223744 84.8414115077137 96.69839885394902 35.55006268598834C222.12489882912178 -13.741286135737028 321.23719048279077 173.45808414774586 491.10977872113506 194.17784119739144C660.9823669594794 214.8975982470372 878.1824788013373 33.34192729188152 912.086822398001 135.00489652428678C945.9911659946645 236.66786575669198 751.1350672998542 551.6843976759402 653.8506279851194 682.1600935129377 "></path><path d="M890.7498981676317 146.0463464534506C923.2415607811008 243.47335863450564 736.5044661985744 545.3642017237851 643.2735451886201 670.403410234241C550.042624178666 795.442618744697 525.1749069146275 749.5511873085361 443.2414773198519 746.2345473036398C361.3080477250762 742.9179072987431 361.0117940840455 720.4711613270974 249.99308313369625 654.4835382107375C138.9743721833471 588.4959150943776 -60.344774645481834 555.274805133791 -89.64833524182518 429.49395634511257C-118.95189583816858 303.71310755643435 -10.864403538291924 97.97300664590142 109.33599227124864 50.735464025081285C229.53638808078927 3.497921404261092 324.51900091555535 182.8973179259322 487.31356464396856 202.75375176517593C650.1081283723818 222.6101856044197 858.2582355541626 48.61933427239558 890.7498981676317 146.0463464534506C923.2415607811008 243.47335863450564 736.5044661985744 545.3642017237851 643.2735451886201 670.403410234241 "></path><path d="M869.4129129021064 157.08779638261444C900.4918945323811 250.2788515123192 721.8738040621386 539.04400577163 632.696401356965 658.6467269555444C543.5189986517911 778.2494481394588 519.7324864861893 734.3532963309572 441.36137991727344 731.180858065404C362.9902733483576 728.0084197998508 362.7069003004152 706.5376193052331 256.51508982616815 643.4190232808888C150.32327935192097 580.3004272565446 -40.32981761478493 548.5237133812009 -68.35931035911335 428.2115971485521C-96.38880310344183 307.89948091590315 6.999233009483703 111.10460178408914 121.97352465339213 65.92086536417418C236.9478162973005 20.73712894425927 327.8007503131637 192.33655170411862 483.51728953164593 211.32966233296042C639.2338287501282 230.32277296180223 838.3339312718315 63.896741252909635 869.4129129021064 157.08779638261444C900.4918945323811 250.2788515123192 721.8738040621386 539.04400577163 632.696401356965 658.6467269555444 "></path><path d="M848.075958154159 168.12930734693452C877.7422588012396 257.0844054252891 707.2431724432806 532.7238708546313 622.1192880428877 646.890104712004C536.9954036424946 761.056338569377 514.290096575329 719.1554663885344 439.4813130322731 716.1272298623246C364.672529489217 713.0989933361149 364.4020370343628 692.6041383185251 263.03712703621795 632.3545693861964C161.6722170380731 572.1050004538679 -20.3148300665099 541.772682663767 -47.0702549588234 426.9292989871477C-73.82567985113695 312.0859153105283 24.8629000748374 124.23625795743305 134.61108755311363 81.10632773842337C244.35927503138987 37.976397519413695 331.08253022835004 201.77584651746122 479.7210449369013 219.90563393590116C628.3595596454526 238.0354213543411 818.4096575070785 79.17420926857994 848.075958154159 168.12930734693452C877.7422588012396 257.0844054252891 707.2431724432806 532.7238708546313 622.1192880428877 646.890104712004 "></path><path d="M826.7390034062119 179.17072675852023C854.992623070098 263.88986778552453 692.6125408244229 526.403644384898 611.5421747288103 635.1333909157293C530.471808633198 743.8631374465607 508.8477066644689 703.9575448933771 437.6012461472727 701.0735101065106C366.35478563007655 698.1894753196442 366.09717376831065 678.6705657790826 269.55916424626787 621.2900239387697C173.02115472422508 563.9094820984567 -0.2998425182348683 535.0215603935987 -25.781199558533444 425.646909273009C-51.26255659883208 316.2722581524191 42.72656714019115 137.36782257804265 147.24865045283514 96.2916985599382C251.77073376547924 55.21557454183369 334.3643101435365 211.21504977806944 475.9248003421567 228.48151398610747C617.4852905407771 245.7479781941455 798.4853837423257 94.45158573151588 826.7390034062119 179.17072675852023C854.992623070098 263.88986778552453 692.6125408244229 526.403644384898 611.5421747288103 635.1333909157293 "></path><path d="M805.4020486582644 190.2122072052622C832.2429873389565 270.6953911809163 677.981909205565 520.0834789503211 600.9650614147331 623.3767381546108C523.9482136239013 726.6699973589007 503.40531675360876 688.7596844333763 435.72117926227236 686.0198513858531C368.03704177093596 683.2800183383301 367.7923105022585 664.7370542747965 276.0812014563178 610.2255395264992C184.37009241037708 555.7140247782019 19.715145030040162 528.270499158587 -4.492144158243491 424.3645805940265C-28.699433346527144 320.45866202946615 60.5902342055449 150.4994482338085 159.88621335255664 111.47713041660927C259.1821924995685 72.45481259940999 337.6460900587231 220.65431407383397 472.1285557474123 237.0574550714701C606.6110214361014 253.46059606910626 778.5611099775724 109.72902322960806 805.4020486582644 190.2122072052622C832.2429873389565 270.6953911809163 677.981909205565 520.0834789503211 600.9650614147331 623.3767381546108 "></path><path d="M784.0651549454733 201.25365713442602C809.493412642971 277.50088405873 663.3513386218633 513.763282998166 590.3880091358121 611.6200548759141C517.424679649761 709.4768267536624 497.96298787790477 673.5617934557972 433.84117341242825 670.9661621476174C369.7193589469516 668.3705308394377 369.48750827136246 650.8035122529321 282.60329970152384 599.1610245966506C195.71909113168533 547.5185369403689 39.73019361347144 521.5194074059967 16.796972277202713 423.0822213974659C-6.136249059066017 324.64503538893496 78.45396230605485 163.6310433719962 172.5238372874344 126.66253175570216C266.593712268814 89.69402013940817 340.9279310090658 230.09354785202032 468.3323721878239 245.63336563925452C595.7368133665822 261.1731834264888 758.6368972479759 125.00643021012206 784.0651549454733 201.25365713442602C809.493412642971 277.50088405873 663.3513386218633 513.763282998166 590.3880091358121 611.6200548759141 "></path><path d="M762.7281391623699 212.29510706358985C786.7437158766731 284.30637693654353 648.7206459678492 507.443087046011 579.8108347865787 599.8633715972176C510.9010236053082 692.2836561484243 492.5205369318884 658.3639024782183 431.96104549227164 655.9124729093818C371.4015540526548 653.4610433405454 371.1825839701539 636.869970231068 289.1252758764175 588.0965096668019C207.0679677826812 539.3230491025358 59.74512012659022 514.7683156534067 38.085966642336416 421.7998622009053C16.42681315808261 328.8314087484039 96.3175683362523 176.76263851018393 185.1613391519997 141.8479330947951C274.0051099677471 106.93322767940629 344.2096498890959 239.53278163020673 464.53606655792305 254.209276207039C584.8624832267503 268.88577078387135 738.7125624480666 140.28383719063612 762.7281391623699 212.29510706358985C786.7437158766731 284.30637693654353 648.7206459678492 507.443087046011 579.8108347865787 599.8633715972176 "></path><path d="M741.3911844144225 223.33660276912087C763.9940801455314 291.1119155907244 634.0900143489914 501.12293687022316 569.2337214725014 588.1067340948881C504.37742859601144 675.0905313195533 487.07814702102814 643.1660572770064 430.0809786072713 640.8588294475132C373.0838101935143 638.5516016180202 372.87772070410165 622.9364739855707 295.6473130864674 577.0320405133205C218.4169054688332 531.1276070410701 79.76010767486525 508.0172696771838 59.37502204262637 420.5175487807119C38.989936410387486 333.01782788424 114.18123540160605 189.89427942473884 197.79890205172126 157.03338021025525C281.41656870183647 124.17248099577165 347.49142980428235 248.97206118476026 460.73982196317854 262.7852325511907C573.9882141220747 276.5984039176211 718.7882886833136 155.56128994751737 741.3911844144225 223.33660276912087C763.9940801455314 291.1119155907244 634.0900143489914 501.12293687022316 569.2337214725014 588.1067340948881 "></path><path d="M720.0542907016314 234.3780526982847C741.2445054495461 297.91740846853793 619.4594437652897 494.80274091806814 558.6566691935805 576.3500508161916C497.8538946218712 657.897360714315 481.63581814532427 627.9681662994274 428.20097275742717 625.8051402092776C374.76612736953007 623.6421141191277 374.5729184732056 609.0029319637065 302.1694113316736 565.9675255834718C229.76590419014144 522.9321192032371 99.77515625829653 501.26617792459365 80.66413847807257 419.23518958415127C61.55312069784861 337.2042012437089 132.044963502116 203.0258745629265 210.436525986599 172.2187815493482C288.82808847108197 141.41168853576983 350.77327075462506 258.4112949629466 456.9436384035903 271.3611431189752C563.1140060525554 284.3109912750037 698.8640759537168 170.83869692803142 720.0542907016314 234.3780526982847C741.2445054495461 297.91740846853793 619.4594437652897 494.80274091806814 558.6566691935805 576.3500508161916 "></path><path d="M698.717305436106 245.41950262744854C718.4948392008264 304.7229013463516 604.8287816288538 488.482544965913 548.0795253619251 564.5933675374949C491.3302690949964 640.7041901090769 476.193397716886 612.7702753218483 426.3208753548487 610.7514509710419C376.44835299281135 608.7326266202354 376.2680246895752 595.0693899418422 308.6914180241454 554.9030106536231C241.11481135871537 514.736631365404 119.79011328899338 494.5150861720035 101.9531633607844 417.95283038759067C84.11621343257536 341.39057460317775 149.90860004989162 216.15746970111422 223.07405836874239 187.40418288844108C296.2395166875932 158.65089607576795 354.0550201522334 267.850528741133 453.14736329126754 279.9370536867596C552.2397064303017 292.02357863238626 678.9397716713856 186.11610390854548 698.717305436106 245.41950262744854C718.4948392008264 304.7229013463516 604.8287816288538 488.482544965913 548.0795253619251 564.5933675374949 "></path><path d="M677.3803812057369 256.4609830741905C695.7452339872628 311.5284247417433 590.1981805275741 482.162379531336 537.502442565426 552.8367147763764C484.8067046032779 623.5110500214168 470.751038323604 597.5724148618474 424.44083898742645 595.6977922503843C378.1306396512489 593.8231696389212 377.9631919411012 581.1358784375561 315.2134857517733 543.8385262413526C252.46377956244555 506.5411740451493 139.80513135484654 487.7640249369915 123.24224927865248 416.6705017086082C106.67936720245837 345.57697848022474 167.77229763282344 229.28909535688007 235.71165178604207 202.58961474511216C303.6510059392607 175.89013413334425 357.336830584998 277.2897930368975 449.35114921410116 288.5129947721222C541.3654678432042 299.73619650734696 659.0155284242109 201.39354140663767 677.3803812057369 256.4609830741905C695.7452339872628 311.5284247417433 590.1981805275741 482.162379531336 537.502442565426 552.8367147763764 "></path><path d="M656.0433959402114 267.5024482621434C672.9955677385432 318.333932878346 575.567518391138 475.84219883797005 526.9252987337707 541.0800467564688C478.28307907640306 606.3178946749676 465.30861789516575 582.3745391430575 422.56074158484796 580.6441182709377C379.8128652745303 578.9136973988179 379.65829815747077 567.2023516744808 321.7354924442451 532.774026570293C263.8126867310194 498.3457014661053 159.82008838554344 481.01294844319057 144.5312741613643 415.38815777083664C129.24245993718512 349.7633670984827 185.63593418059907 242.42070575385685 248.34918416818545 217.77503134299417C311.0624341557718 193.1293569321315 360.6185799826063 286.72904207387296 445.5548741017785 297.0889205986957C530.4911682209506 307.4487991235186 639.0912241418796 216.6709636459408 656.0433959402114 267.5024482621434C672.9955677385432 318.333932878346 575.567518391138 475.84219883797005 526.9252987337707 541.0800467564688 "></path><path d="M634.7064564510532 278.54392870888535C650.2459472661906 325.1394562737377 560.9369020310693 469.52203340339315 516.3482006784825 529.3233939953503C471.7594993258956 589.1247545873075 459.8662432430947 567.1766786830567 420.6806899586368 565.5904595502801C381.49513667417887 564.0042404175035 381.35345015020766 553.2688401701946 328.2575449130841 521.7095421580225C275.1616396759605 490.15024414585037 179.83509119260754 474.26188720817856 165.82034482044332 414.10582909185416C151.8055984482791 353.9497709755297 203.49961650474188 255.5523314096227 260.98676232669607 232.96046319966524C318.47390814865025 210.3685949897078 363.90037515658184 296.16830636963743 441.75864476582296 305.66486168405834C519.6169143750641 315.16141699847924 619.1669656359157 231.9484011440329 634.7064564510532 278.54392870888535C650.2459472661906 325.1394562737377 560.9369020310693 469.52203340339315 516.3482006784825 529.3233939953503 "></path><path d="M613.369516961895 289.5853786380492C627.4963267938381 331.9449491515513 546.3062856710005 463.20183745123813 505.7711026231942 517.5667107166537C465.23591957538804 571.9315839820695 454.4238685910235 551.9787877054775 418.8006383324255 550.5367703120444C383.17740807382734 549.0947529186112 383.04860214294445 539.3352981483304 334.779597381923 510.64502722817383C286.5105926209016 481.9547563080174 199.85009399967163 467.51079545558844 187.10941547952234 412.82346989529356C174.36873695937305 358.1361443349986 221.36329882888464 268.6839265478104 273.62434048520663 248.14586453875813C325.8853821415287 227.6078025297059 367.18217033055726 305.6075401478238 437.9624154298674 314.2407722518428C508.74266052917756 322.8740043558618 599.2427071299519 247.22580812454697 613.369516961895 289.5853786380492C627.4963267938381 331.9449491515513 546.3062856710005 463.20183745123813 505.7711026231942 517.5667107166537 "></path><path d="M592.0325927315257 300.626828567213C604.7467215802745 338.750442029365 531.6756845697207 456.881641499083 495.1940198266951 505.81002743795705C458.71235508366954 554.7384133768312 448.9815091977414 536.7808967278986 416.92060196500324 535.4830810738088C384.85969473226487 534.1852654197189 384.7437693944703 525.4017561264661 341.301665109551 499.5805122983253C297.8595608246317 473.75926847018445 219.86511206552478 460.7597037029984 208.39850139739042 411.54111069873295C196.93189072925605 362.3225176944675 239.22699641181646 281.8155216859981 286.26193390250626 263.3312658778511C333.29687139319606 244.84701006970408 370.46398076332196 315.04677392601013 434.166201352701 322.81668281962726C497.8684219420802 330.5865917132444 579.318463882777 262.50321510506103 592.0325927315257 300.626828567213C604.7467215802745 338.750442029365 531.6756845697207 456.881641499083 495.1940198266951 505.81002743795705 "></path><path d="M570.6955922072112 311.66830901395497C581.9970400727657 345.5559654247567 517.0450071744957 450.5614760645061 484.6168607362507 494.05337467683853C452.1887142980057 537.5452732891712 443.5390735105141 521.5830362678978 415.0404893036357 520.4294223531512C386.54190509675715 519.2758084384046 386.4388603520508 511.4682446221799 347.8236565432337 488.51602788605476C309.2084527344166 465.5638111499295 239.88005383743263 454.0086424679864 229.68751102131318 410.25878201975047C219.49496820519374 366.5089215715145 257.090617700803 294.9471473417639 298.8994510258606 278.51669773452215C340.70828435091823 262.0862481272804 373.7457149021412 324.48603822177466 430.3699109815893 331.3926239049899C486.9941070610373 338.2992095882051 559.3941443416568 277.7806526031532 570.6955922072112 311.66830901395497C581.9970400727657 345.5559654247567 517.0450071744957 450.5614760645061 484.6168607362507 494.05337467683853 "></path><path d="M549.3586679768421 322.7097589431188C559.2474348592023 352.3614583025703 502.414406073216 444.24128011235103 474.0397779397516 482.296691398142C445.6651498062872 520.352102683933 438.09671411723207 506.38514529031863 413.1604529362134 505.3757331149154C388.22419175519474 504.3663209395122 388.13402760357667 497.53470260031565 354.34572427086175 477.4515129562061C320.5574209381467 457.36832331209655 259.8950719032858 447.2575507153963 250.97659693918126 408.97642282318986C242.05812197507674 370.69529493098344 274.9543152837349 308.07874247995164 311.53704444316026 293.7020990736151C348.11977360258567 279.3254556672785 377.02752533490576 333.925271999961 426.57369690442283 339.9685344727743C476.11986847393996 346.01179694558766 539.4699010944819 293.0580595836673 549.3586679768421 322.7097589431188C559.2474348592023 352.3614583025703 502.414406073216 444.24128011235103 474.0397779397516 482.296691398142 "></path><path d="M528.0217284876838 333.75120887228263C536.4978143868498 359.16695118038393 487.78378971314714 437.92108416019596 463.46267988446345 470.54000811944536C439.14157005577965 503.15893207869476 432.654339465161 491.1872543127397 411.2804013100021 490.3220438766798C389.90646315484327 489.4568334406199 389.8291795963135 483.6011605784513 360.8677767397007 466.38699802635745C331.90637388308784 449.1728354742636 279.9100747103499 440.5064589628062 272.2656675982603 407.69406362662926C264.6212604861707 374.8816682904523 292.81799760787766 321.21033761813936 324.1746226016709 308.887500412708C355.53124759546404 296.5646632072767 380.3093205088813 343.3645057781474 422.7774675684674 348.5444450405588C465.24561462805343 353.72438430297024 519.5456425885179 308.33546656418133 528.0217284876838 333.75120887228263C536.4978143868498 359.16695118038393 487.78378971314714 437.92108416019596 463.46267988446345 470.54000811944536 "></path><path d="M506.6847584809475 344.79270457781365C513.748163396919 365.9724898345647 473.15314283550026 431.60093398440813 452.8855513115971 458.7833706171159C432.617959787694 485.9658072498238 427.21193429551175 475.98940911152783 409.40031916621274 475.26840041481125C391.58870403691367 474.5473917180947 391.5243010714722 469.66766433295425 367.38979869096147 455.322528872876C343.2552963104508 440.97739341279777 299.92504699983584 433.7554129865833 293.55470773976117 406.41175020643584C287.1843684796865 379.06808742628834 310.6816494144423 334.34197853269427 336.8121702426033 324.07294752816813C362.94269107076434 313.80391652364204 383.5910851652786 352.80378533270095 418.9812077149337 357.1204013847105C454.3713302645888 361.43701743672 499.62135356497595 323.6129193210626 506.6847584809475 344.79270457781365C513.748163396919 365.9724898345647 473.15314283550026 431.60093398440813 452.8855513115971 458.7833706171159 "></path><path d="M485.34780373300015 355.8341392481884C490.9985276657774 372.77796745358927 458.5225112166424 425.280722773464 442.3084379975199 447.0266720796302C426.0943647783974 468.7726213857965 421.76954438465157 460.79150287515984 407.5202522812124 460.2146959177865C393.2709601777731 459.63788896041325 393.21943780541994 455.7341070523009 373.9118359010114 444.2579986842383C354.60423399660283 432.7818903161757 319.9400345481108 427.00430597520415 314.8437631400511 405.1293757510862C309.7474917319914 383.2544455269682 328.54531647979604 347.4735584120929 349.4497331423248 339.258333608472C370.35414980485365 331.0431088048511 386.8728650804651 362.24300385209824 415.1849631201892 365.6962966937059C443.4970611599132 369.14958953531345 479.6970798002229 338.8903110427876 485.34780373300015 355.8341392481884C490.9985276657774 372.77796745358927 458.5225112166424 425.280722773464 442.3084379975199 447.0266720796302 "></path><path d="M464.01084898505286 366.8756196949304C468.2488919346358 379.58349084898106 443.8918795977845 418.96055733888704 431.73132468344266 435.27001931851174C419.57076976910076 451.57948129813644 416.32715447379144 445.5936424151589 405.640185396212 445.16103719712896C394.95321631863254 444.728431979099 394.91457453936766 441.8005955480147 380.4338731110613 433.1935142719678C365.9531716827548 424.58643299592086 339.95502209638585 420.25324474019214 336.1328185403411 403.8470470721037C332.3106149842963 387.44084940401524 346.40898354514974 360.6051840678588 362.0872960420464 354.4437654651431C377.76560853894296 348.2823468624274 390.15464499565155 371.68226814786277 411.38871852544463 374.27223777906846C432.62279205523765 376.86220741027415 459.7728060354699 354.1677485408797 464.01084898505286 366.8756196949304C468.2488919346358 379.58349084898106 443.8918795977845 418.96055733888704 431.73132468344266 435.27001931851174 "></path><path d="M442.6738942371055 377.9170696240942C445.49925620349416 386.38898372679466 429.2612479789267 412.64036138673197 421.1542113693654 423.5133360398151C413.0471747598042 434.3863106928983 410.88476456293125 430.3957514375799 403.76011851121166 430.10734795889323C396.635472459492 429.8189444802066 396.60971127331544 427.86705352615047 386.95591032111116 422.12899934211913C377.3021093689069 416.39094515808785 359.9700096446609 413.5021529876021 357.42187394063103 402.5646878755431C354.8737382366012 391.6272227634841 364.2726506105035 373.73677920604644 374.7248589417679 369.629166804236C385.17706727303226 365.5215544024256 393.436424910838 381.1215019260491 407.59247393070007 382.84814834685295C421.74852295056206 384.5747947676567 439.84853227071693 369.44515552139376 442.6738942371055 377.9170696240942C445.49925620349416 386.38898372679466 429.2612479789267 412.64036138673197 421.1542113693654 423.5133360398151 "></path><path d="M421.3369547479473 388.9585348120471C422.7496357311416 393.19449186339733 414.6306316188579 406.320180693366 410.5771133140772 411.7566680199076C406.5235950092966 417.19315534644915 405.4423899108602 415.19787571878993 401.88006688500036 415.0536739794466C398.31774385914053 414.9094722401033 398.3048632660523 413.93352676307524 393.4779627899501 411.0644996710596C388.651062313848 408.19547257904395 379.98501245172497 406.751076493801 378.71094459971005 401.28234393777154C377.4368767476951 395.813611381742 382.13633293464625 386.8683896030232 387.3624371002785 384.814583402118C392.5885412659107 382.76077720121276 396.71822008481354 390.5607509630246 403.79624459474456 391.42407417342645C410.8742691046756 392.28739738382836 419.924273764753 384.7225777606969 421.3369547479473 388.9585348120471C422.7496357311416 393.19449186339733 414.6306316188579 406.320180693366 410.5771133140772 411.7566680199076 "></path></g></svg>